<svg fill="#000000" xmlns="http://www.w3.org/2000/svg" viewBox="0 0 32 32" width="32px" height="32px"><path d="M15.996,5.011c1.697,0.353,8.422,4.206,9.6,5.499c0.54,1.641,0.539,9.335,0,10.979c-1.17,1.291-7.9,5.148-9.599,5.5 c-1.698-0.35-8.425-4.206-9.597-5.499c-0.535-1.648-0.535-9.334,0-10.98C7.569,9.217,14.297,5.361,15.996,5.011 M15.998,3 C14.225,3,5.535,7.983,4.658,9.503C3.78,11.024,3.781,20.984,4.659,22.499C5.54,24.018,14.229,29,15.998,29 c1.764,0,10.453-4.981,11.337-6.499c0.887-1.522,0.887-11.487,0-13.003V9.496C26.444,7.979,17.756,3,15.998,3L15.998,3z"/><rect width="6" height="2" x="13" y="15"/><rect width="2" height="9" x="18" y="12"/><rect width="2" height="10" x="12" y="11"/><polygon points="13,9 11,11 15,11"/><polygon points="19,23 21,21 17,21"/></svg>