<?xml version="1.0" encoding="UTF-8"?>
<svg xmlns="http://www.w3.org/2000/svg" xmlns:xlink="http://www.w3.org/1999/xlink" width="30pt" height="30pt" viewBox="0 0 30 30" version="1.1">
<g id="surface10594413">
<path style=" stroke:none;fill-rule:nonzero;fill:rgb(0%,0%,0%);fill-opacity:1;" d="M 24 4 L 6 4 C 4.894531 4 4 4.894531 4 6 L 4 24 C 4 25.105469 4.894531 26 6 26 L 24 26 C 25.105469 26 26 25.105469 26 24 L 26 6 C 26 4.894531 25.105469 4 24 4 Z M 22.542969 21 L 16.609375 21 L 16.609375 20.667969 L 18 19.445312 L 18 12.46875 L 14.589844 21 L 14.054688 21 L 10.25 12.402344 L 10.25 18.488281 L 11.988281 20.667969 L 11.988281 21 L 7.457031 21 L 7.457031 20.667969 L 9.257812 18.488281 L 9.257812 11.246094 L 7.65625 9.25 C 7.65625 9.25 7.65625 8.960938 7.65625 9.003906 L 12.035156 9.003906 L 15.433594 16.359375 L 18.363281 9.003906 L 22.519531 9.003906 L 22.519531 9.25 L 21 10.527344 L 21 19.445312 L 22.542969 20.667969 Z M 22.542969 21 "/>
</g>
</svg>
